# xmcd
#
# Track frame offsets:
#	150
#	29212
#	31267
#	45621
#	52814
#	77093
#	82041
#	101132
#	108517
#	133310
#	136168
#	155264
#	169624
#
# Disc length: 2561 seconds
#
# Revision: 1
# Processed by: cddbd v1.5.1PL0 Copyright (c) Steve Scherf et al.
# Submitted via: audiograbber 1.82.01
#
DISCID=a909ff0d
DTITLE=Warren Zevon - 1992-02-11 - Parker's,Seattle, WA - Disc 2
DYEAR=1900
DGENRE=
TTITLE0=Warren Zevon - Boom Boom Mancini
TTITLE1=Warren Zevon - [banter]
TTITLE2=Warren Zevon - Excitable Boy
TTITLE3=Warren Zevon - [banter]
TTITLE4=Warren Zevon - Model Citizen
TTITLE5=Warren Zevon - [banter]
TTITLE6=Warren Zevon - Searching for a Heart
TTITLE7=Warren Zevon - [banter]
TTITLE8=Warren Zevon - That's Amore  [Brooks-Warren] - Werewolves of London
TTITLE9=Warren Zevon - [band and crew intros]
TTITLE10=Warren Zevon - Into the Mystic  [Morrison]
TTITLE11=Warren Zevon - Lawyers, Guns and Money
TTITLE12=Warren Zevon - Mohammed's Radio
EXTD=
EXTT0=
EXTT1=
EXTT2=
EXTT3=
EXTT4=
EXTT5=
EXTT6=
EXTT7=
EXTT8=
EXTT9=
EXTT10=
EXTT11=
EXTT12=
PLAYORDER=
